<svg width="33" height="32" viewBox="0 0 33 32" fill="none" xmlns="http://www.w3.org/2000/svg">
<path d="M31.497 0.931172C30.6967 0.109757 29.5122 -0.196261 28.4077 0.125863L2.65319 7.61524C1.48791 7.93897 0.66197 8.8683 0.439479 10.0489C0.212186 11.2504 1.00611 12.7757 2.04334 13.4135L10.0962 18.3629C10.9222 18.8702 11.9882 18.743 12.6717 18.0537L21.8931 8.77488C22.3573 8.2917 23.1256 8.2917 23.5898 8.77488C24.0539 9.24196 24.0539 9.99895 23.5898 10.4821L14.3524 19.7625C13.6673 20.4503 13.5392 21.5213 14.0434 22.3524L18.9639 30.486C19.5401 31.4524 20.5325 32 21.621 32C21.749 32 21.8931 32 22.0211 31.9839C23.2696 31.8228 24.262 30.9692 24.6302 29.7612L32.2653 4.03967C32.6014 2.94445 32.2973 1.75259 31.497 0.931172Z" fill="#00F6FF"/>
</svg>
